# xmcd
#
# Track frame offsets:
#	150
#	9852
#	20100
#	32187
#	41637
#	52650
#	64500
#	74072
#	84927
#	95860
#	109722
#	123712
#	135052
#	147275
#	160095
#	172197
#	188207
#	200085
#	211200
#	222300
#
# Disc length: 3092 seconds
#
# Revision: 0
# Processed by: cddbd v1.5.2PL0 Copyright (c) Steve Scherf et al.
# Submitted via: audiograbber 1.83.01
#
DISCID=220c1214
DTITLE=Brenda Lee - Anthology Disc One
DYEAR=1980
DGENRE=Rock and Roll
TTITLE0=Jambalaya
TTITLE1=Bigelow 6 200
TTITLE2=One Step At A Time
TTITLE3=Dynamite
TTITLE4=Little Jonah Rock On Your Steel Guitar
TTITLE5=Let's Jump The Broomstick
TTITLE6=Rockin' Around The Christmas Tree
TTITLE7=Bill Bailey
TTITLE8=Sweet Nothin's
TTITLE9=Weep No More My Baby
TTITLE10=I Want To Be Wanted
TTITLE11=That's All You Gotta Do
TTITLE12=I'm Sorry
TTITLE13=Emotions
TTITLE14=If You Love Me (Really Love Me)
TTITLE15=You Can Depend On Me
TTITLE16=Kansas City
TTITLE17=Dum Dum
TTITLE18=Fool No 1
TTITLE19=So Deep
EXTD=
EXTT0=
EXTT1=
EXTT2=
EXTT3=
EXTT4=
EXTT5=
EXTT6=
EXTT7=
EXTT8=
EXTT9=
EXTT10=
EXTT11=
EXTT12=
EXTT13=
EXTT14=
EXTT15=
EXTT16=
EXTT17=
EXTT18=
EXTT19=
PLAYORDER=
